<?xml version="1.0" encoding="utf-8"?>
<!-- Generator: Adobe Illustrator 16.0.0, SVG Export Plug-In . SVG Version: 6.00 Build 0)  -->
<!DOCTYPE svg PUBLIC "-//W3C//DTD SVG 1.1//EN" "http://www.w3.org/Graphics/SVG/1.1/DTD/svg11.dtd">
<svg version="1.1" id="Capa_1" xmlns="http://www.w3.org/2000/svg" xmlns:xlink="http://www.w3.org/1999/xlink" x="0px" y="0px"
	 width="469.2px" height="319.602px" viewBox="0 0 469.2 319.602" enable-background="new 0 0 469.2 319.602" xml:space="preserve">
<g>
	<path fill="#6D6E71" d="M22.202,1.223C25.888-0.143,29.832-1,34-1h401.2c4.168,0,8.113,0.857,11.799,2.225l-179.758,169.34
		c-18.3,17.252-46.976,17.252-65.281,0L22.202,1.223z M464.188,302.144c3.113-5.135,5.012-11.098,5.012-17.544V33
		c0-4.568-0.932-8.915-2.57-12.898L298.411,178.568L464.188,302.144z M283.2,192.663c-13.961,11.961-31.253,18.027-48.6,18.027
		c-17.347,0-34.64-6.06-48.6-18.027L20.692,315.887c4.094,1.741,8.582,2.714,13.308,2.714h401.2c4.727,0,9.215-0.973,13.309-2.714
		L283.2,192.663z M2.571,20.1C0.932,24.085,0,28.43,0,33V284.6c0,6.446,1.897,12.409,5.012,17.544l165.777-123.576L2.571,20.1z"/>
</g>
</svg>
