<?xml version="1.0" encoding="utf-8"?>
<!-- Generator: Adobe Illustrator 16.0.0, SVG Export Plug-In . SVG Version: 6.00 Build 0)  -->
<!DOCTYPE svg PUBLIC "-//W3C//DTD SVG 1.1//EN" "http://www.w3.org/Graphics/SVG/1.1/DTD/svg11.dtd">
<svg version="1.1" id="Layer_1" xmlns="http://www.w3.org/2000/svg" xmlns:xlink="http://www.w3.org/1999/xlink" x="0px" y="0px"
	 width="266.891px" height="266.895px" viewBox="28.554 280.553 266.891 266.895"
	 enable-background="new 28.554 280.553 266.891 266.895" xml:space="preserve">
<path id="Blue_1_" d="M280.717,547.447c8.135,0,14.729-6.597,14.729-14.73V295.283c0-8.137-6.596-14.73-14.729-14.73H43.284
	c-8.138,0-14.73,6.594-14.73,14.73v237.434c0,8.135,6.593,14.73,14.73,14.73H280.717L280.717,547.447z"/>
<path id="f" fill="#FFFFFF" d="M212.705,547.447V444.092h34.691l5.194-40.279h-39.887v-25.717c0-11.662,3.237-19.609,19.962-19.609
	l21.329-0.01V322.45c-3.688-0.49-16.351-1.587-31.08-1.587c-30.753,0-51.808,18.771-51.808,53.244v29.705h-34.78v40.28h34.78
	v103.355H212.705L212.705,547.447z"/>
</svg>
